<?xml version="1.0" encoding="UTF-8" standalone="no"?>
<svg
   xmlns:dc="http://purl.org/dc/elements/1.1/"
   xmlns:cc="http://creativecommons.org/ns#"
   xmlns:rdf="http://www.w3.org/1999/02/22-rdf-syntax-ns#"
   xmlns:svg="http://www.w3.org/2000/svg"
   xmlns="http://www.w3.org/2000/svg"
   xmlns:sodipodi="http://sodipodi.sourceforge.net/DTD/sodipodi-0.dtd"
   xmlns:inkscape="http://www.inkscape.org/namespaces/inkscape"
   viewBox="0 0 24 24"
   version="1.1"
   id="svg3773"
   sodipodi:docname="eye.svg"
   inkscape:version="0.92.5 (2060ec1f9f, 2020-04-08)">
  <metadata
     id="metadata3779">
    <rdf:RDF>
      <cc:Work
         rdf:about="">
        <dc:format>image/svg+xml</dc:format>
        <dc:type
           rdf:resource="http://purl.org/dc/dcmitype/StillImage" />
      </cc:Work>
    </rdf:RDF>
  </metadata>
  <defs
     id="defs3777" />
  <sodipodi:namedview
     pagecolor="#ffffff"
     bordercolor="#666666"
     borderopacity="1"
     objecttolerance="10"
     gridtolerance="10"
     guidetolerance="10"
     inkscape:pageopacity="0"
     inkscape:pageshadow="2"
     inkscape:window-width="1920"
     inkscape:window-height="1009"
     id="namedview3775"
     showgrid="false"
     inkscape:zoom="32.291667"
     inkscape:cx="11.458065"
     inkscape:cy="12"
     inkscape:window-x="0"
     inkscape:window-y="34"
     inkscape:window-maximized="1"
     inkscape:current-layer="svg3773" />
  <title
     id="title3766" />
  <g
     data-name="Layer 2"
     id="Layer_2">
    <path
       d="M12,5c-6.54,0-9.76,6.29-9.89,6.55L1.88,12l.22.45C2.24,12.71,5.46,19,12,19s9.76-6.29,9.89-6.55l.22-.45-.22-.45C21.76,11.29,18.54,5,12,5Zm0,12c-4.38,0-7-3.7-7.85-5C5,10.7,7.62,7,12,7s7,3.7,7.85,5C19,13.3,16.38,17,12,17Z"
       id="path3768" />
    <path
       d="M12,8a4,4,0,1,0,4,4A4,4,0,0,0,12,8Zm0,6a2,2,0,1,1,2-2A2,2,0,0,1,12,14Z"
       id="path3770" />
  </g>
  <path
     style="fill:none;stroke:#000000;stroke-width:1px;stroke-linecap:butt;stroke-linejoin:miter;stroke-opacity:1"
     d="M 1.4245161,4.3664516 C 21.646452,18.952258 21.646452,18.952258 21.646452,18.952258"
     id="path3785"
     inkscape:connector-curvature="0" />
</svg>
